<?xml version="1.0" encoding="utf-8"?>
<!-- Generator: Adobe Illustrator 19.2.1, SVG Export Plug-In . SVG Version: 6.00 Build 0)  -->
<svg version="1.1" id="Layer_1" xmlns="http://www.w3.org/2000/svg" xmlns:xlink="http://www.w3.org/1999/xlink" x="0px" y="0px"
	 viewBox="0 0 100 63.8" style="enable-background:new 0 0 100 63.8;" xml:space="preserve">
<g>
	<path d="M94,23.6L50.8,2c-0.5-0.3-1.1-0.3-1.6,0L6,23.6c-0.6,0.3-1,0.9-1,1.6s0.4,1.3,1,1.6l1.7,0.9v11c0,0.7,0.4,1.3,1,1.6
		l40.5,21.6c0,0,0,0,0,0l0,0c0,0,0,0,0,0c0.1,0,0.1,0.1,0.2,0.1c0,0,0,0,0,0c0,0,0.1,0,0.1,0c0,0,0,0,0.1,0c0,0,0.1,0,0.2,0
		c0,0,0,0,0.1,0c0.1,0,0.1,0,0.2,0c0.1,0,0.1,0,0.2,0c0,0,0,0,0.1,0c0.1,0,0.1,0,0.2,0c0,0,0,0,0.1,0c0,0,0.1,0,0.1,0c0,0,0,0,0,0
		c0.1,0,0.1,0,0.2-0.1c0,0,0,0,0,0l0,0c0,0,0,0,0,0l40.5-21.6c0.6-0.3,1-0.9,1-1.6v-11l1.7-0.9c0.6-0.3,1-0.9,1-1.6
		S94.6,23.9,94,23.6z M50,44.8L16.2,27.9L50,11l33.8,16.9L50,44.8z M50,5.6L88.7,25c0,0.1,0,0.2,0,0.2v0.2l-0.9,0.5l-37-18.5
		c-0.5-0.3-1.1-0.3-1.6,0l-37,18.5l-0.9-0.5v-0.2c0-0.1,0-0.2,0-0.2L50,5.6z M11.3,29.5l36.9,18.4v9.4L11.3,37.6V29.5z M88.7,37.6
		L51.8,57.3v-9.4l36.9-18.4V37.6z"/>
	<path d="M58.3,24.7l0.1-1c0.7-0.7,1.1-1.6,1.1-2.5c0-3-4-5.3-9.4-5.3c-5.3,0-9.4,2.3-9.4,5.3c0,0.9,0.4,1.8,1.1,2.5l1,10.8
		c0.1,2.4,3.2,4.2,7.3,4.2s7.3-1.8,7.3-4.2l0.1-0.6c1.6-0.6,3.1-1.8,3.6-3.6C61.3,29,61.1,27,58.3,24.7z M50.1,18.3
		c4.3,0,7,1.7,7,2.9c0,1.2-2.7,2.9-7,2.9s-7-1.7-7-2.9C43.1,20,45.8,18.3,50.1,18.3z M50.1,36.4c-3.1,0-4.9-1.2-4.9-1.9
		c0,0,0-0.1,0-0.1l-0.8-8.9c1.6,0.7,3.5,1.1,5.8,1.1c2.2,0,4.2-0.4,5.8-1.1L55.2,32c-3.1,0.3-6.7-1.1-8-4.2
		c-0.2-0.6-0.9-0.9-1.6-0.7c-0.6,0.2-0.9,0.9-0.7,1.6c1.6,4,5.6,5.8,9.3,5.8c0.2,0,0.5,0,0.7,0c0,0,0,0,0,0.1
		C55,35.1,53.1,36.4,50.1,36.4z M58.7,29.8c-0.1,0.5-0.5,1-1,1.3l0.3-3.3C58.6,28.5,58.8,29.2,58.7,29.8z"/>
</g>
</svg>
